<svg width="135" height="135" viewBox="0 0 135 135" fill="none" xmlns="http://www.w3.org/2000/svg">
<path d="M67.5 0.5C104.503 0.5 134.5 30.4969 134.5 67.5C134.5 104.503 104.503 134.5 67.5 134.5C30.4969 134.5 0.5 104.503 0.5 67.5C0.5 30.4969 30.4969 0.5 67.5 0.5ZM47.8203 42.5049C45.9708 42.5984 44.5 44.1273 44.5 46V89C44.5 90.8727 45.9708 92.4016 47.8203 92.4951L48 92.5H56C57.933 92.5 59.5 90.933 59.5 89V46L59.4951 45.8203C59.4016 43.9708 57.8727 42.5 56 42.5H48L47.8203 42.5049ZM78.8203 42.5049C76.9708 42.5984 75.5 44.1273 75.5 46V89C75.5 90.8727 76.9708 92.4016 78.8203 92.4951L79 92.5H87C88.933 92.5 90.5 90.933 90.5 89V46L90.4951 45.8203C90.4016 43.9708 88.8727 42.5 87 42.5H79L78.8203 42.5049Z" fill="#D9D9D9" stroke="#989898"/>
</svg>
