<svg width="69" height="60" viewBox="0 0 69 60" fill="none" xmlns="http://www.w3.org/2000/svg">
<mask id="path-1-inside-1_3_47" fill="white">
<path d="M6.19786 32.5C6.58276 31.8333 7.54538 31.8333 7.93028 32.5L13.9918 43C14.3767 43.6667 13.8954 44.5 13.1256 44.5H10.0641V51C10.0641 52.6569 11.4072 54 13.0641 54H55.0641C56.7208 53.9999 58.0641 52.6568 58.0641 51V37C58.0641 35.8954 58.9595 35 60.0641 35H62.0641C63.1685 35.0001 64.0641 35.8955 64.0641 37V54C64.0641 57.3136 61.3777 59.9999 58.0641 60H10.0641C6.75036 60 4.06407 57.3137 4.06407 54V44.5H1.00157C0.231886 44.4999 -0.249385 43.6666 0.135358 43L6.19786 32.5ZM58.0641 0C61.3777 0.000112355 64.0641 2.68636 64.0641 6V15.5H67.1256C67.8954 15.5 68.3767 16.3333 67.9918 17L61.9303 27.5C61.5454 28.1667 60.5828 28.1667 60.1979 27.5L54.1354 17C53.7506 16.3334 54.2319 15.5001 55.0016 15.5H58.0641V9C58.0641 7.34321 56.7208 6.00011 55.0641 6H13.0641C11.4072 6 10.0641 7.34315 10.0641 9V23C10.0641 24.1045 9.16854 24.9999 8.06407 25H6.06407C4.9595 25 4.06407 24.1046 4.06407 23V6C4.06407 2.68629 6.75036 4.83192e-08 10.0641 0H58.0641Z"/>
</mask>
<path d="M6.19786 32.5C6.58276 31.8333 7.54538 31.8333 7.93028 32.5L13.9918 43C14.3767 43.6667 13.8954 44.5 13.1256 44.5H10.0641V51C10.0641 52.6569 11.4072 54 13.0641 54H55.0641C56.7208 53.9999 58.0641 52.6568 58.0641 51V37C58.0641 35.8954 58.9595 35 60.0641 35H62.0641C63.1685 35.0001 64.0641 35.8955 64.0641 37V54C64.0641 57.3136 61.3777 59.9999 58.0641 60H10.0641C6.75036 60 4.06407 57.3137 4.06407 54V44.5H1.00157C0.231886 44.4999 -0.249385 43.6666 0.135358 43L6.19786 32.5ZM58.0641 0C61.3777 0.000112355 64.0641 2.68636 64.0641 6V15.5H67.1256C67.8954 15.5 68.3767 16.3333 67.9918 17L61.9303 27.5C61.5454 28.1667 60.5828 28.1667 60.1979 27.5L54.1354 17C53.7506 16.3334 54.2319 15.5001 55.0016 15.5H58.0641V9C58.0641 7.34321 56.7208 6.00011 55.0641 6H13.0641C11.4072 6 10.0641 7.34315 10.0641 9V23C10.0641 24.1045 9.16854 24.9999 8.06407 25H6.06407C4.9595 25 4.06407 24.1046 4.06407 23V6C4.06407 2.68629 6.75036 4.83192e-08 10.0641 0H58.0641Z" fill="#D9D9D9"/>
<path d="M6.19786 32.5L7.06387 33L7.06388 33L6.19786 32.5ZM7.93028 32.5L8.79633 32L8.79631 32L7.93028 32.5ZM13.9918 43L13.1258 43.5L13.1258 43.5L13.9918 43ZM10.0641 44.5V43.5H9.06407V44.5H10.0641ZM55.0641 54L55.0641 55L55.0641 55L55.0641 54ZM62.0641 35L62.0642 34H62.0641V35ZM64.0641 37L65.0641 37L64.0641 37ZM64.0641 54L65.0641 54V54H64.0641ZM58.0641 60L58.0641 61L58.0641 61L58.0641 60ZM10.0641 60L10.0641 61H10.0641V60ZM4.06407 54L3.06407 54V54L4.06407 54ZM4.06407 44.5H5.06407V43.5H4.06407V44.5ZM1.00157 44.5L1.00146 45.5H1.00157V44.5ZM0.135358 43L-0.730656 42.5L-0.730738 42.5001L0.135358 43ZM58.0641 0L58.0641 -1H58.0641V0ZM64.0641 6L65.0641 6L64.0641 6ZM64.0641 15.5H63.0641V16.5H64.0641V15.5ZM67.9918 17L67.1258 16.5L67.1258 16.5L67.9918 17ZM61.9303 27.5L62.7963 28L62.7963 28L61.9303 27.5ZM60.1979 27.5L61.0639 27L61.0639 27L60.1979 27.5ZM54.1354 17L53.2693 17.4999L53.2693 17.5L54.1354 17ZM55.0016 15.5L55.0016 14.5L55.0015 14.5L55.0016 15.5ZM58.0641 15.5V16.5H59.0641V15.5H58.0641ZM55.0641 6L55.0641 5H55.0641V6ZM8.06407 25L8.06407 26L8.06417 26L8.06407 25ZM4.06407 23L3.06407 23L4.06407 23ZM4.06407 6L3.06407 6V6H4.06407ZM10.0641 0L10.0641 -1L10.0641 0ZM6.19786 32.5L7.06388 33L7.06425 33L7.93028 32.5L8.79631 32C8.0265 30.6667 6.10164 30.6667 5.33184 32L6.19786 32.5ZM7.93028 32.5L7.06423 33L13.1258 43.5L13.9918 43L14.8579 42.5L8.79633 32L7.93028 32.5ZM13.9918 43L13.1258 43.5L13.1256 43.5V44.5V45.5C14.6649 45.5 15.6278 43.8336 14.8578 42.5L13.9918 43ZM13.1256 44.5V43.5H10.0641V44.5V45.5H13.1256V44.5ZM10.0641 44.5H9.06407V51H10.0641H11.0641V44.5H10.0641ZM10.0641 51H9.06407C9.06407 53.2091 10.8549 55 13.0641 55V54V53C11.9595 53 11.0641 52.1046 11.0641 51H10.0641ZM13.0641 54V55H55.0641V54V53H13.0641V54ZM55.0641 54L55.0641 55C57.2731 54.9999 59.0641 53.2091 59.0641 51H58.0641H57.0641C57.0641 52.1044 56.1686 52.9999 55.064 53L55.0641 54ZM58.0641 51H59.0641V37H58.0641H57.0641V51H58.0641ZM58.0641 37H59.0641C59.0641 36.4477 59.5118 36 60.0641 36V35V34C58.4072 34 57.0641 35.3431 57.0641 37H58.0641ZM60.0641 35V36H62.0641V35V34H60.0641V35ZM62.0641 35L62.064 36C62.6163 36.0001 63.0641 36.4479 63.0641 37L64.0641 37L65.0641 37C65.0641 35.3431 63.7208 34.0002 62.0642 34L62.0641 35ZM64.0641 37H63.0641V54H64.0641H65.0641V37H64.0641ZM64.0641 54L63.0641 54C63.0641 56.7613 60.8254 58.9999 58.064 59L58.0641 60L58.0641 61C61.9299 60.9999 65.0641 57.866 65.0641 54L64.0641 54ZM58.0641 60V59H10.0641V60V61H58.0641V60ZM10.0641 60L10.0641 59C7.30265 59 5.06407 56.7614 5.06407 54L4.06407 54L3.06407 54C3.06407 57.866 6.19808 61 10.0641 61L10.0641 60ZM4.06407 54H5.06407V44.5H4.06407H3.06407V54H4.06407ZM4.06407 44.5V43.5H1.00157V44.5V45.5H4.06407V44.5ZM1.00157 44.5L1.00168 43.5L1.00145 43.4999L0.135358 43L-0.730738 42.5001C-1.50036 43.8336 -0.537659 45.4998 1.00146 45.5L1.00157 44.5ZM0.135358 43L1.00137 43.5L7.06387 33L6.19786 32.5L5.33184 32L-0.730656 42.5L0.135358 43ZM58.0641 0L58.064 1C60.8254 1.00009 63.0641 3.23868 63.0641 6L64.0641 6L65.0641 6C65.0641 2.13404 61.9299 -0.999869 58.0641 -1L58.0641 0ZM64.0641 6H63.0641V15.5H64.0641H65.0641V6H64.0641ZM64.0641 15.5V16.5H67.1256V15.5V14.5H64.0641V15.5ZM67.1256 15.5V16.5L67.1258 16.5L67.9918 17L68.8578 17.5C69.6278 16.1664 68.6649 14.5 67.1256 14.5V15.5ZM67.9918 17L67.1258 16.5L61.0642 27L61.9303 27.5L62.7963 28L68.8579 17.5L67.9918 17ZM61.9303 27.5L61.0643 27L61.0639 27L60.1979 27.5L59.3318 28C60.1016 29.3333 62.0265 29.3333 62.7963 28L61.9303 27.5ZM60.1979 27.5L61.0639 27L55.0014 16.5L54.1354 17L53.2693 17.5L59.3318 28L60.1979 27.5ZM54.1354 17L55.0015 16.5001L55.0017 16.5L55.0016 15.5L55.0015 14.5C53.4623 14.5002 52.4996 16.1664 53.2693 17.4999L54.1354 17ZM55.0016 15.5V16.5H58.0641V15.5V14.5H55.0016V15.5ZM58.0641 15.5H59.0641V9H58.0641H57.0641V15.5H58.0641ZM58.0641 9H59.0641C59.0641 6.79086 57.2731 5.00015 55.0641 5L55.0641 6L55.064 7C56.1686 7.00007 57.0641 7.89557 57.0641 9H58.0641ZM55.0641 6V5H13.0641V6V7H55.0641V6ZM13.0641 6V5C10.8549 5 9.06407 6.79086 9.06407 9H10.0641H11.0641C11.0641 7.89543 11.9595 7 13.0641 7V6ZM10.0641 9H9.06407V23H10.0641H11.0641V9H10.0641ZM10.0641 23H9.06407C9.06407 23.5521 8.61634 23.9999 8.06397 24L8.06407 25L8.06417 26C9.72075 25.9998 11.0641 24.6569 11.0641 23H10.0641ZM8.06407 25V24H6.06407V25V26H8.06407V25ZM6.06407 25V24C5.51178 24 5.06407 23.5523 5.06407 23L4.06407 23L3.06407 23C3.06407 24.6569 4.40721 26 6.06407 26V25ZM4.06407 23H5.06407V6H4.06407H3.06407V23H4.06407ZM4.06407 6L5.06407 6C5.06407 3.23858 7.30265 1 10.0641 1L10.0641 0L10.0641 -1C6.19808 -1 3.06407 2.13401 3.06407 6L4.06407 6ZM10.0641 0V1H58.0641V0V-1H10.0641V0Z" fill="#989898" mask="url(#path-1-inside-1_3_47)"/>
</svg>
