<svg width="58" height="58" viewBox="0 0 58 58" fill="none" xmlns="http://www.w3.org/2000/svg">
<mask id="path-1-inside-1_1_22" fill="white">
<path d="M54.5 0C56.1568 7.58784e-07 57.5 1.34318 57.5 3V54.1035C57.5 55.7604 56.1569 57.1035 54.5 57.1035H50.9824C49.3257 57.1033 47.9824 55.7603 47.9824 54.1035V3C47.9825 1.34329 49.3257 0.000181338 50.9824 0H54.5ZM0 7.17383C0 4.86445 2.50001 3.42055 4.5 4.5752L44.2754 27.54C46.2754 28.6947 46.2754 31.5816 44.2754 32.7363L4.5 55.7012C2.50003 56.8557 0 55.4119 0 53.1025V7.17383Z"/>
</mask>
<path d="M54.5 0C56.1568 7.58784e-07 57.5 1.34318 57.5 3V54.1035C57.5 55.7604 56.1569 57.1035 54.5 57.1035H50.9824C49.3257 57.1033 47.9824 55.7603 47.9824 54.1035V3C47.9825 1.34329 49.3257 0.000181338 50.9824 0H54.5ZM0 7.17383C0 4.86445 2.50001 3.42055 4.5 4.5752L44.2754 27.54C46.2754 28.6947 46.2754 31.5816 44.2754 32.7363L4.5 55.7012C2.50003 56.8557 0 55.4119 0 53.1025V7.17383Z" fill="#D9D9D9"/>
<path d="M54.5 0L54.5 -1H54.5V0ZM57.5 3L58.5 3L58.5 2.99998L57.5 3ZM57.5 54.1035L58.5 54.1035V54.1035H57.5ZM54.5 57.1035L54.5 58.1035L54.5 58.1035L54.5 57.1035ZM50.9824 57.1035L50.9823 58.1035H50.9824V57.1035ZM47.9824 54.1035L46.9824 54.1035L46.9824 54.1035L47.9824 54.1035ZM47.9824 3L46.9824 2.99998V3H47.9824ZM50.9824 0L50.9824 -1L50.9823 -1L50.9824 0ZM4.5 4.5752L5.00001 3.70917L4.99998 3.70916L4.5 4.5752ZM44.2754 27.54L43.7754 28.4061L43.7754 28.4061L44.2754 27.54ZM44.2754 32.7363L43.7754 31.8703L43.7754 31.8703L44.2754 32.7363ZM4.5 55.7012L4.99993 56.5672L5.00001 56.5672L4.5 55.7012ZM54.5 0L54.5 1C55.6045 1 56.5 1.89545 56.5 3.00002L57.5 3L58.5 2.99998C58.5 0.790909 56.7091 -0.999999 54.5 -1L54.5 0ZM57.5 3H56.5V54.1035H57.5H58.5V3H57.5ZM57.5 54.1035L56.5 54.1035C56.5 55.2081 55.6046 56.1035 54.5 56.1035L54.5 57.1035L54.5 58.1035C56.7091 58.1035 58.5 56.3127 58.5 54.1035L57.5 54.1035ZM54.5 57.1035V56.1035H50.9824V57.1035V58.1035H54.5V57.1035ZM50.9824 57.1035L50.9825 56.1035C49.8779 56.1034 48.9824 55.2079 48.9824 54.1035L47.9824 54.1035L46.9824 54.1035C46.9824 56.3127 48.7735 58.1033 50.9823 58.1035L50.9824 57.1035ZM47.9824 54.1035H48.9824V3H47.9824H46.9824V54.1035H47.9824ZM47.9824 3L48.9824 3.00002C48.9824 1.89567 49.878 1.00012 50.9825 1L50.9824 0L50.9823 -1C48.7735 -0.999758 46.9825 0.790915 46.9824 2.99998L47.9824 3ZM50.9824 0V1H54.5V0V-1H50.9824V0ZM0 7.17383H1C1 5.63396 2.66694 4.67161 4.00002 5.44123L4.5 4.5752L4.99998 3.70916C2.33308 2.16949 -1 4.09494 -1 7.17383H0ZM4.5 4.5752L3.99999 5.44122L43.7754 28.4061L44.2754 27.54L44.7754 26.674L5.00001 3.70917L4.5 4.5752ZM44.2754 27.54L43.7754 28.4061C45.1087 29.1759 45.1087 31.1005 43.7754 31.8703L44.2754 32.7363L44.7754 33.6024C47.4421 32.0628 47.4421 28.2136 44.7754 26.674L44.2754 27.54ZM44.2754 32.7363L43.7754 31.8703L3.99999 54.8352L4.5 55.7012L5.00001 56.5672L44.7754 33.6023L44.2754 32.7363ZM4.5 55.7012L4.00007 54.8351C2.66692 55.6047 1 54.6423 1 53.1025H0H-1C-1 56.1815 2.33315 58.1066 4.99993 56.5672L4.5 55.7012ZM0 53.1025H1V7.17383H0H-1V53.1025H0Z" fill="#989898" mask="url(#path-1-inside-1_1_22)"/>
</svg>
