<svg width="58" height="58" viewBox="0 0 58 58" fill="none" xmlns="http://www.w3.org/2000/svg">
<mask id="path-1-inside-1_1_32" fill="white">
<path d="M3 0C1.34317 7.58784e-07 3.64321e-05 1.34318 0 3V54.1035C3.04799e-06 55.7604 1.34315 57.1035 3 57.1035H6.51758C8.17428 57.1033 9.51758 55.7603 9.51758 54.1035V3C9.51754 1.34329 8.17425 0.000181338 6.51758 0H3ZM57.5 7.17383C57.5 4.86445 55 3.42055 53 4.5752L13.2246 27.54C11.2246 28.6947 11.2246 31.5816 13.2246 32.7363L53 55.7012C55 56.8557 57.5 55.4119 57.5 53.1025V7.17383Z"/>
</mask>
<path d="M3 0C1.34317 7.58784e-07 3.64321e-05 1.34318 0 3V54.1035C3.04799e-06 55.7604 1.34315 57.1035 3 57.1035H6.51758C8.17428 57.1033 9.51758 55.7603 9.51758 54.1035V3C9.51754 1.34329 8.17425 0.000181338 6.51758 0H3ZM57.5 7.17383C57.5 4.86445 55 3.42055 53 4.5752L13.2246 27.54C11.2246 28.6947 11.2246 31.5816 13.2246 32.7363L53 55.7012C55 56.8557 57.5 55.4119 57.5 53.1025V7.17383Z" fill="#D9D9D9"/>
<path d="M3 0L3 -1H3V0ZM0 3L-1 3L-1 2.99998L0 3ZM0 54.1035L-1 54.1035V54.1035H0ZM3 57.1035L3 58.1035L3 58.1035L3 57.1035ZM6.51758 57.1035L6.51769 58.1035H6.51758V57.1035ZM9.51758 54.1035L10.5176 54.1035L10.5176 54.1035L9.51758 54.1035ZM9.51758 3L10.5176 2.99998V3H9.51758ZM6.51758 0L6.51758 -1L6.51769 -1L6.51758 0ZM53 4.5752L52.5 3.70917L52.5 3.70916L53 4.5752ZM13.2246 27.54L13.7246 28.4061L13.7246 28.4061L13.2246 27.54ZM13.2246 32.7363L13.7246 31.8703L13.7246 31.8703L13.2246 32.7363ZM53 55.7012L52.5001 56.5672L52.5 56.5672L53 55.7012ZM3 0L3 1C1.89548 1 1.00002 1.89545 1 3.00002L0 3L-1 2.99998C-0.999951 0.790909 0.790863 -0.999999 3 -1L3 0ZM0 3H1V54.1035H0H-1V3H0ZM0 54.1035L1 54.1035C1 55.2081 1.89543 56.1035 3 56.1035L3 57.1035L3 58.1035C0.790862 58.1035 -0.999996 56.3127 -1 54.1035L0 54.1035ZM3 57.1035V56.1035H6.51758V57.1035V58.1035H3V57.1035ZM6.51758 57.1035L6.51747 56.1035C7.62208 56.1034 8.51758 55.2079 8.51758 54.1035L9.51758 54.1035L10.5176 54.1035C10.5176 56.3127 8.72648 58.1033 6.51769 58.1035L6.51758 57.1035ZM9.51758 54.1035H8.51758V3H9.51758H10.5176V54.1035H9.51758ZM9.51758 3L8.51758 3.00002C8.51755 1.89567 7.62203 1.00012 6.51747 1L6.51758 0L6.51769 -1C8.72648 -0.999758 10.5175 0.790915 10.5176 2.99998L9.51758 3ZM6.51758 0V1H3V0V-1H6.51758V0ZM57.5 7.17383H56.5C56.5 5.63396 54.8331 4.67161 53.5 5.44123L53 4.5752L52.5 3.70916C55.1669 2.16949 58.5 4.09494 58.5 7.17383H57.5ZM53 4.5752L53.5 5.44122L13.7246 28.4061L13.2246 27.54L12.7246 26.674L52.5 3.70917L53 4.5752ZM13.2246 27.54L13.7246 28.4061C12.3913 29.1759 12.3913 31.1005 13.7246 31.8703L13.2246 32.7363L12.7246 33.6024C10.0579 32.0628 10.0579 28.2136 12.7246 26.674L13.2246 27.54ZM13.2246 32.7363L13.7246 31.8703L53.5 54.8352L53 55.7012L52.5 56.5672L12.7246 33.6023L13.2246 32.7363ZM53 55.7012L53.4999 54.8351C54.8331 55.6047 56.5 54.6423 56.5 53.1025H57.5H58.5C58.5 56.1815 55.1668 58.1066 52.5001 56.5672L53 55.7012ZM57.5 53.1025H56.5V7.17383H57.5H58.5V53.1025H57.5Z" fill="#989898" mask="url(#path-1-inside-1_1_32)"/>
</svg>
