<svg width="68" height="60" viewBox="0 0 68 60" fill="none" xmlns="http://www.w3.org/2000/svg">
<path d="M33.2676 1.23438C34.162 0.443057 35.3653 0.328026 36.3574 0.711914C37.3483 1.09541 38.0604 1.9448 38.0605 3.03613V56.9639C38.0603 58.0552 37.3474 58.9046 36.3564 59.2881C35.3644 59.6718 34.1618 59.5568 33.2676 58.7656L11.8896 39.8516L11.6348 39.626L11.332 39.7803C10.9248 39.9868 10.4545 40.1064 9.95117 40.1064H3.31738C1.71826 40.1064 0.500244 38.9319 0.5 37.5762V22.4238C0.500209 21.0681 1.71819 19.8936 3.31738 19.8936H9.95117C10.4552 19.8936 10.9256 20.0128 11.332 20.2188L11.6348 20.3721L11.8896 20.1475L33.2676 1.23438ZM55.3213 12.6748C56.071 11.8762 57.3148 11.6635 58.2383 12.1875L58.4189 12.3027C63.9553 16.2394 67.4997 22.3708 67.5 29.2422C67.4998 35.6901 64.378 41.4841 59.4189 45.4268L58.9336 45.8027C57.9922 46.5108 56.5821 46.3373 55.7568 45.458C54.8371 44.4771 55.0093 42.9357 56.1064 41.9346C59.656 38.6967 61.866 34.2103 61.8662 29.2422C61.866 24.0998 59.4992 19.4723 55.7295 16.2119C54.5906 15.2265 54.3945 13.6627 55.3213 12.6748ZM44.1396 18.6904C44.5758 18.3569 45.1839 18.281 45.6748 18.5107C50.805 20.9152 54.0125 24.7866 54.0127 29.0439C54.0121 33.0652 51.1515 36.7379 46.5059 39.1621C46.0235 39.4135 45.4132 39.3667 44.9502 39.0625L44.8594 38.999C44.0838 38.4049 44.1411 37.2037 45.0547 36.5254C47.6803 34.5758 49.3403 31.9634 49.3408 29.0439C49.3407 25.889 47.4047 23.0946 44.4023 21.1035C43.4556 20.4757 43.3778 19.2756 44.1406 18.6914L44.1396 18.6904Z" fill="#D9D9D9" stroke="#989898"/>
</svg>
